<svg xmlns="http://www.w3.org/2000/svg" xml:space="preserve" width="1000px" height="304.263px" x="0px" y="0px" viewBox="0 0 1000 304.263"><g fill="#221E1F"><path d="M502.617 138.306h-91.816v-23.379h91.816V89.039h-91.816V68.194h91.816V42.383H378.213v121.723h124.404zM898.301 90.499l77.168 73.607h24.532V42.383h-32.54v73.618l-77.139-73.618h-24.551v121.723h32.53zM830.693 42.383H696.436v121.723h134.258V42.383zm-32.529 95.923h-69.17V68.194h69.17v70.112zM241.42 90.499l77.135 73.607h24.58V42.383h-32.549v73.618l-77.14-73.618h-24.57v121.723h32.544zM599.619 126.495l33.34 37.611h41.123l-53.916-60.819 54.043-60.904h-41.211l-33.379 37.7-33.428-37.7H524.99l54.043 60.904-53.916 60.819h41.162z"/></g><path fill="#00A1DF" d="M-.001 164.624v102.304l135.85-72.265z"/><path fill="#002B49" d="M135.849 0-.001 72.217v92.407l135.85 30.039z"/><path fill="#C4D600" d="M135.849 194.663-.001 266.928l168.486 37.334 135.822-72.197z"/></svg>