<svg xmlns="http://www.w3.org/2000/svg" id="svg2" width="1000" height="288.48874" >
  <g id="layer1" transform="translate(-66.249341 -149.49884)">
    <g id="g2476" transform="matrix(7.1473 0 0 7.1473 66.249341 255.01681)">
      <g id="g2520" style="fill:#000000">
        <g id="g2522" style="fill:#000000">
          <g id="g2198" transform="matrix(1.57547 0 0 1.57547 0 -14.732135)">
            <path id="path2482" d="M11.6-.0198078l-11.6 5.7V15.883779l11.6-.000308z" style="fill:#0b2a4a;fill-opacity:1"/>
            <path id="path2488" d="M14.9 25.6l12-6.3-15.300547-3.416396-11.5638133-.007117L0 22.090913z" style="fill:#c3d600;fill-opacity:1"/>
            <path id="path2494" d="M3.215391 7.1556477v8.7000003l11.59968-6.2065587z" style="fill:#00a1e1;fill-opacity:1" transform="translate(-3.215391 6.2344217)"/>
            <path id="path2500" d="M43.406955 5.0429563v-2.3h-10.9V13.542956h10.9v-2.5h-8V9.1429563h8v-2.2h-8v-1.9z" style="fill:#000000"/>
            <path id="path2506" d="M73.806955 13.542956V2.7429563h-12V13.542956zm-2.9-8.1999997v5.6999997h-6.3V5.3429563z" style="fill:#000000"/>
            <path id="path2512" d="M54.606955 8.1429563l4.9-5.4h-3.7l-3.2 3.7-3.2-3.7h-3.7l5 5.4-5 5.3999997h3.7l3.2-3.7000001 3.2 3.7000001h3.7z" style="fill:#000000"/>
            <path id="path2518" d="M29.306955 2.7429563h-2.9v5.9l-8.9-6.2V13.542956h2.8V7.6429563l9 6.1999997z" style="fill:#000000"/>
            <path id="path2524" d="M77.006955 13.542956h2.8V7.5429563l9 6.2999997V2.7429563h-2.8v5.9l-9-6.2z" style="fill:#000000"/>
          </g>
        </g>
      </g>
    </g>
  </g>
</svg>
